FEEL-FREE TEAM

.............................................
GENRE:Comedy, Romance
AUDIO:English
Language:English
Source: 720p.Bluray.x264-CBGB
IMDB: http://www.imdb.com/title/tt1185416/
Subtitles: Romanian
Encoder: Tony2
..............................................
General
Complete name : When.in.Rome.2010.BRRip.H264.AAC.FEEL-FREE
Format : MPEG-4
Format profile : Base Media
Codec ID : isom
File size : 1.08 GiB
Duration : 1h 30mn
Overall bit rate : 1 708 Kbps
...............................................
Video
ID : 2
Format : AVC
Format/Info : Advanced Video Codec
Format profile : Baseline@L1.3
Format settings, CABAC : No
Format settings, ReFrames : 1 frame
Codec ID : avc1
Codec ID/Info : Advanced Video Coding
Duration : 1h 30mn
Bit rate mode : Variable
Bit rate : 1 525 Kbps
Width : 720 pixels
Height : 304 pixels
Display aspect ratio : 2.35:1
Frame rate mode : Constant
Frame rate : 23.976 fps
Resolution : 24 bits
Colorimetry : 4:2:0
Scan type : Progressive
Bits/(Pixel*Frame) : 0.291
Stream size : 990 MiB (89%)
Language : English
..................................................
Audio
ID : 1
Format : AAC
Format/Info : Advanced Audio Codec
Format version : Version 4
Format profile : LC
Format settings, SBR : No
Codec ID : 40
Duration : 1h 30mn
Bit rate mode : Constant
Bit rate : 177 Kbps
Channel(s) : 6 channels
Channel positions : Front: L C R, Rear: L R, LFE
Sampling rate : 44.1 KHz
Resolution : 16 bits
Stream size : 115 MiB (10%)
Language : English
...................................................
Plot:
Beth is a young, ambitious New Yorker who is completely unlucky in love. However, on a whirlwind trip to Rome, she impulsively steals some coins from a reputed fountain of love, and is then aggressively pursued by a band of suitors.
